Coordinates
version=1
nRows=26
nColumns=24
inDegrees=yes

Units are S.I. units (second, meters, Newtons, ...)
Angles are in degrees.

endheader
time	pelvis_tilt	pelvis_list	pelvis_rotation	pelvis_tx	pelvis_ty	pelvis_tz	hip_flexion_r	hip_adduction_r	hip_rotation_r	knee_angle_r	ankle_angle_r	subtalar_angle_r	mtp_angle_r	hip_flexion_l	hip_adduction_l	hip_rotation_l	knee_angle_l	ankle_angle_l	subtalar_angle_l	mtp_angle_l	lumbar_extension	lumbar_bending	lumbar_rotation
      6.22000000	     -5.33898775	      6.01230888	    -13.32925269	      1.63748709	      0.66345251	     -0.22103501	     12.10129508	     -4.46723618	      9.70126493	    -63.78003672	    -19.09586945	    -28.98300474	      0.00000000	     22.57741322	      7.61141651	     -7.79324531	    -18.99425401	      8.05578517	    -15.35255170	      0.00000000	    -10.25511845	     -6.75432878	      7.76119032
      6.23000000	     -5.33543353	      5.68283494	    -12.85958438	      1.64652476	      0.66549723	     -0.22255022	     14.26299769	     -3.75192839	      9.76183697	    -65.28760034	    -15.62338146	    -29.17815103	      0.00000000	     21.19203808	      7.75705742	     -7.53218166	    -18.12746860	      8.71671036	    -14.55290219	      0.00000000	    -10.51308976	     -5.91610085	      6.73694444
      6.24000000	     -5.36530844	      5.29320895	    -12.31471898	      1.65552528	      0.66734422	     -0.22408255	     16.37355113	     -2.99580661	      9.80142561	    -66.38956428	    -12.28187209	    -28.85192091	      0.00000000	     19.83812130	      7.83916348	     -7.11509075	    -17.27754215	      9.29136179	    -13.71844136	      0.00000000	    -10.71984131	     -5.01087557	      5.74923914
      6.25000000	     -5.40914824	      4.93593938	    -11.74130767	      1.66451509	      0.66892373	     -0.22557376	     18.44880773	     -2.32031309	      9.83591424	    -67.13394972	     -9.12690959	    -28.05969719	      0.00000000	     18.54457897	      7.91003848	     -6.81703715	    -16.48437292	      9.94034483	    -12.89172310	      0.00000000	    -10.86569305	     -4.16559424	      4.74120910
      6.26000000	     -5.46739025	      4.60024917	    -11.10873295	      1.67341480	      0.67022711	     -0.22701489	     20.47208127	     -1.70696749	      9.86182122	    -67.51747535	     -6.47462604	    -27.18749069	      0.00000000	     17.32925473	      7.97408300	     -6.48038465	    -15.78609525	     10.58234394	    -12.01321533	      0.00000000	    -10.99414525	     -3.37655491	      3.71981015
      6.27000000	     -5.53176312	      4.28498481	    -10.41962813	      1.68223228	      0.67126562	     -0.22839168	     22.42218935	     -1.17345909	      9.85531729	    -67.52909768	     -4.39531992	    -26.45317713	      0.00000000	     16.18262323	      8.03117331	     -6.09840237	    -15.18283769	     11.21666826	    -11.10629241	      0.00000000	    -11.12150805	     -2.64530235	      2.67905016
      6.28000000	     -5.57374104	      4.04669756	     -9.68374262	      1.69094027	      0.67201458	     -0.22968954	     24.28534390	     -0.78436216	      9.84280876	    -67.19792016	     -2.75587238	    -26.00714303	      0.00000000	     15.12442796	      8.13676006	     -5.73712481	    -14.74775877	     11.93487363	    -10.22684233	      0.00000000	    -11.28494150	     -2.04847640	      1.56628066
      6.29000000	     -5.59945835	      3.85140177	     -8.89709861	      1.69955151	      0.67251016	     -0.23091981	     26.03890102	     -0.51139185	      9.80940636	    -66.49541797	     -1.60790370	    -26.00378327	      0.00000000	     14.13781992	      8.26858181	     -5.29903483	    -14.45944643	     12.67732901	     -9.41247847	      0.00000000	    -11.48714992	     -1.53906264	      0.42133149
      6.30000000	     -5.59734836	      3.74917216	     -8.07777252	      1.70807346	      0.67275941	     -0.23209244	     27.67585065	     -0.40432650	      9.79714877	    -65.43960991	     -0.89552134	    -26.48506375	      0.00000000	     13.19903122	      8.49702245	     -4.68035924	    -14.28326948	     13.36732035	     -8.88076127	      0.00000000	    -11.73644805	     -1.17575130	     -0.77478248
      6.31000000	     -5.58740652	      3.58497552	     -7.23829434	      1.71656389	      0.67282441	     -0.23316405	     29.14629309	     -0.30334055	      9.74618847	    -63.96968405	     -0.47329620	    -27.39496972	      0.00000000	     12.36963294	      8.59667715	     -4.27340406	    -14.37100650	     14.37557536	     -7.90700628	      0.00000000	    -12.01076133	     -0.76382864	     -1.89151507
      6.32000000	     -5.58869339	      3.51108662	     -6.35572707	      1.72502726	      0.67267626	     -0.23425674	     30.51870516	     -0.39186539	      9.68600581	    -62.17089635	     -0.07336252	    -28.29032982	      0.00000000	     11.55826005	      8.82363210	     -3.46702973	    -14.44454963	     15.08100406	     -7.55770521	      0.00000000	    -12.26939804	     -0.45708444	     -3.06779754
      6.33000000	     -5.53520009	      3.31223518	     -5.49860957	      1.73351926	      0.67248047	     -0.23518431	     31.59159534	     -0.37763450	      9.66675092	    -59.86919366	     -0.57494901	    -30.20746471	      0.00000000	     10.75363362	      8.87031901	     -2.77546949	    -14.69120795	     15.90991626	     -7.08500580	      0.00000000	    -12.60108762	     -0.05661719	     -4.12168916
      6.34000000	     -5.47738353	      3.20503851	     -4.63746110	      1.74203416	      0.67211355	     -0.23608920	     32.52386693	     -0.52333921	      9.69841712	    -57.25346869	     -1.11109846	    -31.96872627	      0.00000000	      9.96942951	      9.00540794	     -1.97622449	    -14.97427155	     16.71063194	     -6.75532989	      0.00000000	    -12.92321375	      0.23272865	     -5.18380129
      6.35000000	     -5.38517715	      3.12203820	     -3.78003719	      1.75061136	      0.67165767	     -0.23691495	     33.24134220	     -0.75299655	      9.75355727	    -54.28546304	     -1.85168849	    -33.68300667	      0.00000000	      9.15189331	      9.14452040	     -1.13577303	    -15.27598847	     17.49555729	     -6.50758040	      0.00000000	    -13.26951818	      0.45763786	     -6.21184611
      6.36000000	     -5.25273041	      3.05792352	     -2.94239625	      1.75928749	      0.67111996	     -0.23769912	     33.72835841	     -1.05552674	      9.83486630	    -50.97357226	     -2.84173962	    -35.41904246	      0.00000000	      8.28613459	      9.27880795	     -0.32409289	    -15.58711726	     18.26208202	     -6.29481240	      0.00000000	    -13.63816927	      0.66998703	     -7.19272209
      6.37000000	     -5.09744368	      3.07742135	     -2.10659019	      1.76802361	      0.67046509	     -0.23839573	     34.04162421	     -1.48848668	      9.93297244	    -47.40903940	     -3.91108467	    -36.84930394	      0.00000000	      7.39151876	      9.47125021	      0.50524671	    -15.90679830	     19.03254056	     -6.06743563	      0.00000000	    -14.02362856	      0.74436586	     -8.13192862
      6.38000000	     -4.90155580	      3.17920610	     -1.29288787	      1.77689600	      0.66972367	     -0.23901509	     34.17185444	     -2.05512354	      9.98116375	    -43.63594190	     -4.95795934	    -37.84317897	      0.00000000	      6.40378530	      9.71716018	      1.30331384	    -16.15326362	     19.79660382	     -5.83588303	      0.00000000	    -14.41134328	      0.70195300	     -9.05294891
      6.39000000	     -4.83895709	      3.46993052	     -0.42683565	      1.78585858	      0.66870692	     -0.23963704	     34.39103790	     -2.90116497	      9.84804813	    -39.83429251	     -5.35863250	    -37.71628367	      0.00000000	      5.52219166	     10.12881547	      2.09496990	    -16.35515145	     20.44865494	     -5.55922482	      0.00000000	    -14.60802808	      0.43573797	    -10.04509885
      6.40000000	     -4.40562538	      3.61840989	      0.40818048	      1.79507316	      0.66800257	     -0.24007306	     33.97296950	     -3.60176774	      9.64644684	    -35.75755117	     -6.30718026	    -37.78509658	      0.00000000	      4.14531665	     10.33521890	      2.89027025	    -16.43240369	     21.05315347	     -5.34681162	      0.00000000	    -15.23486160	      0.29771305	    -10.94097411
      6.41000000	     -4.12802824	      3.98317724	      1.29816632	      1.80444977	      0.66700495	     -0.24047580	     33.69297021	     -4.56340542	      9.23092841	    -31.76107006	     -6.79621952	    -36.96690943	      0.00000000	      2.86210095	     10.72419109	      3.73073621	    -16.43039007	     21.61771961	     -5.06202793	      0.00000000	    -15.62261668	     -0.10656838	    -11.95428219
      6.42000000	     -3.67944987	      4.41630867	      2.19338734	      1.81403776	      0.66610914	     -0.24080802	     33.15077351	     -5.60724180	      8.53076736	    -27.79816811	     -6.64664772	    -35.00337337	      0.00000000	      1.29926968	     11.12710338	      4.63614674	    -16.31186651	     22.00714249	     -4.86494479	      0.00000000	    -16.21139295	     -0.59398746	    -12.93930310
      6.43000000	     -3.23985752	      4.86519489	      3.14840701	      1.82386376	      0.66516485	     -0.24107788	     32.53747297	     -6.68280796	      7.43641141	    -23.91709772	     -5.97840259	    -32.01692693	      0.00000000	     -0.32528787	     11.46898656	      5.55473087	    -16.14083347	     22.37040127	     -4.56201111	      0.00000000	    -16.76113331	     -1.10739109	    -13.98416204
      6.44000000	     -2.81783653	      5.33385178	      4.14773681	      1.83393356	      0.66418189	     -0.24128474	     31.87301980	     -7.76367358	      5.94521920	    -20.17005478	     -4.87321243	    -28.07356029	      0.00000000	     -1.99716996	     11.75160144	      6.48644562	    -15.92492919	     22.69557322	     -4.17154095	      0.00000000	    -17.27061905	     -1.64907653	    -15.05611956
      6.45000000	     -2.41232144	      5.77743731	      5.19149111	      1.84426059	      0.66318733	     -0.24143362	     31.15384040	     -8.78609038	      4.03649283	    -16.59529707	     -3.51969840	    -23.35091047	      0.00000000	     -3.70111513	     11.92170288	      7.40794944	    -15.68391504	     23.00362794	     -3.69228169	      0.00000000	    -17.73893167	     -2.16750991	    -16.12480315
      6.46000000	     -1.95828511	      6.18693711	      6.24635677	      1.85482792	      0.66225608	     -0.24148585	     30.30765335	     -9.69491358	      1.81115762	    -13.21431407	     -2.10484305	    -18.15569972	      0.00000000	     -5.46246331	     11.95503324	      8.18979885	    -15.46949903	     23.22649655	     -3.11408676	      0.00000000	    -18.25352522	     -2.64844429	    -17.18406875
      6.47000000	     -1.67072471	      6.54023433	      7.36722251	      1.86562224	      0.66120853	     -0.24152790	     29.59282519	    -10.50266251	     -0.71662067	    -10.12816649	     -0.63457241	    -12.62317630	      0.00000000	     -7.06998367	     11.87163713	      9.05921542	    -15.25951050	     23.45783623	     -2.47196356	      0.00000000	    -18.54057869	     -3.07641860	    -18.20789650
